<svg width="192" height="186" viewBox="0 0 192 186" fill="none" xmlns="http://www.w3.org/2000/svg" xmlns:xlink="http://www.w3.org/1999/xlink">
<path d="M95.75,0.5C43.191,0.5 0.5,41.756 0.5,92.75L3.5,92.75C3.5,43.504 44.755,3.5 95.75,3.5L95.75,0.5ZM0.5,92.75C0.5,143.744 43.191,185 95.75,185L95.75,182C44.755,182 3.5,141.996 3.5,92.75L0.5,92.75ZM95.75,185C148.309,185 191,143.744 191,92.75L188,92.75C188,141.996 146.745,182 95.75,182L95.75,185ZM191,92.75C191,41.756 148.309,0.5 95.75,0.5L95.75,3.5C146.745,3.5 188,43.504 188,92.75L191,92.75Z" fill="#035014"/>
<path d="M123.667,76.75L122.808,77.98L122.808,77.98L123.667,76.75ZM109.333,74.676L109.241,76.173L109.241,76.173L109.333,74.676ZM80.667,74.676L80.759,76.173L80.759,76.173L80.667,74.676ZM66.333,76.75L67.192,77.98L67.192,77.98L66.333,76.75ZM66.333,116.75L67.192,115.52L67.192,115.52L66.333,116.75ZM123.667,116.75L122.808,115.52L122.808,115.52L123.667,116.75ZM128.75,96.75C128.75,91.669 128.295,86.888 127.605,83.193C127.26,81.349 126.85,79.739 126.392,78.483C126.163,77.855 125.911,77.283 125.631,76.803C125.364,76.345 125.008,75.857 124.525,75.52L122.808,77.98C122.773,77.956 122.865,78.014 123.039,78.313C123.2,78.59 123.382,78.985 123.573,79.51C123.955,80.558 124.329,81.994 124.656,83.744C125.309,87.237 125.75,91.831 125.75,96.75L128.75,96.75ZM124.525,75.52C123.982,75.141 123.163,74.89 122.369,74.697C121.503,74.486 120.41,74.288 119.142,74.105C116.601,73.738 113.261,73.416 109.426,73.179L109.241,76.173C113.026,76.407 116.279,76.722 118.713,77.074C119.932,77.25 120.922,77.432 121.66,77.612C122.029,77.702 122.316,77.786 122.526,77.862C122.755,77.944 122.824,77.991 122.808,77.98L124.525,75.52ZM109.426,73.179C109.129,73.16 109.188,73.097 109.3,73.212C109.38,73.294 109.339,73.325 109.285,73.045C109.22,72.701 109.216,72.465 109.132,71.848C109.061,71.33 108.943,70.696 108.669,70.038C108.085,68.634 106.916,67.402 104.743,66.554C102.64,65.733 99.556,65.25 95,65.25L95,68.25C99.402,68.25 102.055,68.725 103.652,69.348C105.18,69.945 105.673,70.645 105.899,71.189C106.03,71.505 106.104,71.85 106.16,72.255C106.202,72.562 106.26,73.195 106.338,73.607C106.429,74.082 106.615,74.755 107.152,75.306C107.722,75.891 108.47,76.125 109.241,76.173L109.426,73.179ZM95,65.25C90.444,65.25 87.36,65.733 85.257,66.554C83.084,67.402 81.915,68.634 81.331,70.038C81.057,70.696 80.939,71.33 80.868,71.848C80.784,72.465 80.78,72.701 80.715,73.045C80.661,73.325 80.62,73.294 80.7,73.212C80.812,73.097 80.871,73.16 80.574,73.179L80.759,76.173C81.53,76.125 82.278,75.891 82.848,75.306C83.385,74.755 83.571,74.082 83.662,73.607C83.74,73.195 83.798,72.562 83.84,72.255C83.896,71.85 83.97,71.505 84.101,71.189C84.327,70.645 84.82,69.945 86.348,69.348C87.945,68.725 90.598,68.25 95,68.25L95,65.25ZM80.574,73.179C76.739,73.416 73.399,73.738 70.858,74.105C69.59,74.288 68.497,74.486 67.631,74.697C66.837,74.89 66.018,75.141 65.475,75.52L67.192,77.98C67.176,77.991 67.245,77.944 67.474,77.862C67.684,77.786 67.971,77.702 68.34,77.612C69.078,77.432 70.068,77.25 71.287,77.074C73.721,76.722 76.973,76.407 80.759,76.173L80.574,73.179ZM65.475,75.52C64.992,75.857 64.636,76.345 64.369,76.803C64.089,77.283 63.837,77.855 63.608,78.483C63.15,79.739 62.74,81.349 62.395,83.193C61.705,86.888 61.25,91.669 61.25,96.75L64.25,96.75C64.25,91.831 64.691,87.237 65.344,83.744C65.671,81.994 66.045,80.558 66.427,79.51C66.618,78.985 66.8,78.59 66.961,78.313C67.135,78.014 67.227,77.956 67.192,77.98L65.475,75.52ZM61.25,96.75C61.25,101.831 61.705,106.612 62.395,110.307C62.74,112.151 63.15,113.761 63.608,115.017C63.837,115.645 64.089,116.217 64.369,116.697C64.636,117.155 64.992,117.643 65.475,117.98L67.192,115.52C67.227,115.544 67.135,115.486 66.961,115.187C66.8,114.91 66.618,114.515 66.427,113.99C66.045,112.942 65.671,111.506 65.344,109.756C64.691,106.263 64.25,101.669 64.25,96.75L61.25,96.75ZM65.475,117.98C65.919,118.29 66.52,118.5 67.082,118.659C67.691,118.832 68.438,118.994 69.291,119.145C71,119.448 73.229,119.726 75.828,119.963C81.029,120.436 87.794,120.75 95,120.75L95,117.75C87.873,117.75 81.2,117.439 76.099,116.975C73.547,116.743 71.409,116.474 69.815,116.191C69.016,116.049 68.377,115.908 67.901,115.773C67.663,115.706 67.483,115.645 67.352,115.592C67.212,115.536 67.174,115.507 67.192,115.52L65.475,117.98ZM95,120.75C102.206,120.75 108.97,120.436 114.172,119.963C116.771,119.726 119,119.448 120.709,119.145C121.562,118.994 122.309,118.832 122.918,118.659C123.48,118.5 124.081,118.29 124.525,117.98L122.808,115.52C122.826,115.507 122.788,115.536 122.648,115.592C122.517,115.645 122.337,115.706 122.099,115.773C121.623,115.908 120.984,116.049 120.185,116.191C118.591,116.474 116.453,116.743 113.901,116.975C108.8,117.439 102.127,117.75 95,117.75L95,120.75ZM124.525,117.98C125.008,117.643 125.364,117.155 125.631,116.697C125.911,116.217 126.163,115.645 126.392,115.017C126.85,113.761 127.26,112.151 127.605,110.307C128.295,106.612 128.75,101.831 128.75,96.75L125.75,96.75C125.75,101.669 125.309,106.263 124.656,109.756C124.329,111.506 123.955,112.942 123.573,113.99C123.382,114.515 123.2,114.91 123.039,115.187C122.865,115.486 122.773,115.544 122.808,115.52L124.525,117.98Z" fill="#035014"/>
<path d="M95,109.5C101.829,109.5 107.25,103.727 107.25,96.75L104.25,96.75C104.25,102.2 100.045,106.5 95,106.5L95,109.5ZM107.25,96.75C107.25,89.773 101.829,84 95,84L95,87C100.045,87 104.25,91.3 104.25,96.75L107.25,96.75ZM95,84C88.171,84 82.75,89.773 82.75,96.75L85.75,96.75C85.75,91.3 89.955,87 95,87L95,84ZM82.75,96.75C82.75,103.727 88.171,109.5 95,109.5L95,106.5C89.955,106.5 85.75,102.2 85.75,96.75L82.75,96.75Z" fill="#035014"/>
</svg>
