<svg width="114" height="102" viewBox="0 0 114 102" fill="none" xmlns="http://www.w3.org/2000/svg" xmlns:xlink="http://www.w3.org/1999/xlink">
<path d="M61.938,44.875C61.938,44.047 61.266,43.375 60.438,43.375C59.609,43.375 58.938,44.047 58.938,44.875L61.938,44.875ZM60.438,54.063L61.048,55.433C61.589,55.192 61.938,54.655 61.938,54.063L60.438,54.063ZM52.952,55.755C52.195,56.092 51.855,56.979 52.192,57.735C52.529,58.492 53.416,58.832 54.173,58.495L52.952,55.755ZM58.938,44.875L58.938,54.063L61.938,54.063L61.938,44.875L58.938,44.875ZM59.827,52.692L52.952,55.755L54.173,58.495L61.048,55.433L59.827,52.692Z" fill="#035014"/>
<line x1="76.125" y1="26.5" x2="76.125" y2="38.75" stroke="#035014" stroke-width="1.5" stroke-miterlimit="3.999327" stroke-linecap="round" stroke-linejoin="round"/>
<line x1="34.875" y1="26.5" x2="34.875" y2="38.75" stroke="#035014" stroke-width="1.5" stroke-miterlimit="3.999327" stroke-linecap="round" stroke-linejoin="round"/>
<path d="M36.375,101.5C37.203,101.5 37.875,100.828 37.875,100C37.875,99.172 37.203,98.5 36.375,98.5L36.375,101.5ZM3.5,69.375C3.5,68.547 2.828,67.875 2,67.875C1.172,67.875 0.5,68.547 0.5,69.375L3.5,69.375ZM36.375,98.5L8.875,98.5L8.875,101.5L36.375,101.5L36.375,98.5ZM8.875,98.5C5.739,98.5 3.5,96.271 3.5,93.875L0.5,93.875C0.5,98.244 4.417,101.5 8.875,101.5L8.875,98.5ZM3.5,93.875L3.5,69.375L0.5,69.375L0.5,93.875L3.5,93.875Z" fill="#035014"/>
<path d="M113.5,69.375C113.5,68.547 112.828,67.875 112,67.875C111.172,67.875 110.5,68.547 110.5,69.375L113.5,69.375ZM77.625,98.5C76.797,98.5 76.125,99.172 76.125,100C76.125,100.828 76.797,101.5 77.625,101.5L77.625,98.5ZM110.5,69.375L110.5,93.875L113.5,93.875L113.5,69.375L110.5,69.375ZM110.5,93.875C110.5,96.271 108.261,98.5 105.125,98.5L105.125,101.5C109.583,101.5 113.5,98.244 113.5,93.875L110.5,93.875ZM105.125,98.5L77.625,98.5L77.625,101.5L105.125,101.5L105.125,98.5Z" fill="#035014"/>
<path d="M110.5,32.625C110.5,33.453 111.172,34.125 112,34.125C112.828,34.125 113.5,33.453 113.5,32.625L110.5,32.625ZM77.625,0.5C76.797,0.5 76.125,1.172 76.125,2C76.125,2.828 76.797,3.5 77.625,3.5L77.625,0.5ZM113.5,32.625L113.5,8.125L110.5,8.125L110.5,32.625L113.5,32.625ZM113.5,8.125C113.5,3.756 109.583,0.5 105.125,0.5L105.125,3.5C108.261,3.5 110.5,5.729 110.5,8.125L113.5,8.125ZM105.125,0.5L77.625,0.5L77.625,3.5L105.125,3.5L105.125,0.5Z" fill="#035014"/>
<path d="M0.5,32.625C0.5,33.453 1.172,34.125 2,34.125C2.828,34.125 3.5,33.453 3.5,32.625L0.5,32.625ZM36.375,3.5C37.203,3.5 37.875,2.828 37.875,2C37.875,1.172 37.203,0.5 36.375,0.5L36.375,3.5ZM3.5,32.625L3.5,8.125L0.5,8.125L0.5,32.625L3.5,32.625ZM3.5,8.125C3.5,5.729 5.739,3.5 8.875,3.5L8.875,0.5C4.417,0.5 0.5,3.756 0.5,8.125L3.5,8.125ZM8.875,3.5L36.375,3.5L36.375,0.5L8.875,0.5L8.875,3.5Z" fill="#035014"/>
<path d="M37.373,74.38C36.754,73.829 35.806,73.884 35.255,74.502C34.704,75.121 34.759,76.069 35.377,76.62L37.373,74.38ZM78.623,76.62C79.241,76.069 79.296,75.121 78.745,74.502C78.194,73.884 77.246,73.829 76.627,74.38L78.623,76.62ZM36.375,75.5C35.377,76.62 35.378,76.621 35.378,76.621C35.379,76.621 35.379,76.622 35.38,76.622C35.381,76.623 35.382,76.624 35.383,76.625C35.385,76.627 35.388,76.629 35.391,76.632C35.397,76.638 35.405,76.645 35.415,76.653C35.435,76.67 35.461,76.692 35.494,76.72C35.56,76.775 35.654,76.852 35.775,76.946C36.017,77.135 36.369,77.396 36.831,77.704C37.754,78.321 39.117,79.129 40.921,79.933C44.532,81.541 49.895,83.125 57,83.125L57,80.125C50.355,80.125 45.405,78.646 42.142,77.192C40.508,76.464 39.293,75.741 38.497,75.21C38.1,74.944 37.807,74.726 37.619,74.58C37.526,74.507 37.458,74.452 37.417,74.418C37.397,74.4 37.383,74.388 37.375,74.382C37.372,74.379 37.369,74.377 37.369,74.377C37.369,74.377 37.369,74.377 37.37,74.377C37.37,74.378 37.37,74.378 37.371,74.378C37.371,74.379 37.372,74.379 37.372,74.379C37.372,74.38 37.373,74.38 36.375,75.5ZM57,83.125C64.105,83.125 69.468,81.541 73.079,79.933C74.883,79.129 76.246,78.321 77.169,77.704C77.631,77.396 77.983,77.135 78.225,76.946C78.346,76.852 78.44,76.775 78.506,76.72C78.539,76.692 78.565,76.67 78.585,76.653C78.595,76.645 78.603,76.638 78.609,76.632C78.612,76.629 78.615,76.627 78.617,76.625C78.618,76.624 78.619,76.623 78.62,76.622C78.621,76.622 78.621,76.621 78.622,76.621C78.622,76.621 78.623,76.62 77.625,75.5C76.627,74.38 76.628,74.38 76.628,74.379C76.628,74.379 76.629,74.379 76.629,74.378C76.63,74.378 76.63,74.378 76.63,74.377C76.631,74.377 76.631,74.377 76.631,74.377C76.631,74.377 76.628,74.379 76.625,74.382C76.617,74.388 76.603,74.4 76.583,74.418C76.542,74.452 76.474,74.507 76.381,74.58C76.193,74.726 75.9,74.944 75.503,75.21C74.707,75.741 73.492,76.464 71.858,77.192C68.595,78.646 63.645,80.125 57,80.125L57,83.125Z" fill="#035014"/>
</svg>
