<svg width="40" height="36" viewBox="0 0 40 36" fill="none" xmlns="http://www.w3.org/2000/svg" xmlns:xlink="http://www.w3.org/1999/xlink">
<path d="M8.5,14C8.5,14.828 9.172,15.5 10,15.5C10.828,15.5 11.5,14.828 11.5,14L8.5,14ZM30,14L28.5,14C28.5,14.828 29.172,15.5 30,15.5L30,14ZM33.249,27.702C32.532,28.116 32.287,29.034 32.702,29.751C33.116,30.468 34.034,30.713 34.751,30.298L33.249,27.702ZM11.5,14L11.5,12L8.5,12L8.5,14L11.5,14ZM11.5,12C11.5,7.306 15.306,3.5 20,3.5L20,0.5C13.649,0.5 8.5,5.649 8.5,12L11.5,12ZM20,3.5C24.694,3.5 28.5,7.306 28.5,12L31.5,12C31.5,5.649 26.351,0.5 20,0.5L20,3.5ZM28.5,12L28.5,14L31.5,14L31.5,12L28.5,12ZM30,15.5C33.59,15.5 36.5,18.41 36.5,22L39.5,22C39.5,16.753 35.247,12.5 30,12.5L30,15.5ZM36.5,22C36.5,24.419 35.183,26.583 33.249,27.702L34.751,30.298C37.6,28.651 39.5,25.504 39.5,22L36.5,22Z" fill="#A3C5B0"/>
<path d="M12.016,15.818C12.803,16.075 13.65,15.644 13.906,14.856C14.163,14.068 13.732,13.222 12.944,12.965L12.016,15.818ZM5.249,30.298C5.966,30.713 6.884,30.468 7.298,29.751C7.713,29.034 7.468,28.116 6.751,27.702L5.249,30.298ZM12.944,12.965C12.016,12.663 11.026,12.5 10,12.5L10,15.5C10.706,15.5 11.383,15.612 12.016,15.818L12.944,12.965ZM10,12.5C4.753,12.5 0.5,16.753 0.5,22L3.5,22C3.5,18.41 6.41,15.5 10,15.5L10,12.5ZM0.5,22C0.5,25.504 2.4,28.651 5.249,30.298L6.751,27.702C4.817,26.583 3.5,24.419 3.5,22L0.5,22Z" fill="#A3C5B0"/>
<line x1="18.5" y1="18" x2="18.5" y2="36" stroke="#A3C5B0" stroke-width="1.5" stroke-miterlimit="3.999327" stroke-linecap="round" stroke-linejoin="round"/>
<path d="M24.939,25.061C25.525,25.646 26.475,25.646 27.061,25.061C27.646,24.475 27.646,23.525 27.061,22.939L24.939,25.061ZM20,18L21.061,16.939C20.475,16.354 19.525,16.354 18.939,16.939L20,18ZM12.939,22.939C12.354,23.525 12.354,24.475 12.939,25.061C13.525,25.646 14.475,25.646 15.061,25.061L12.939,22.939ZM27.061,22.939L21.061,16.939L18.939,19.061L24.939,25.061L27.061,22.939ZM18.939,16.939L12.939,22.939L15.061,25.061L21.061,19.061L18.939,16.939Z" fill="#A3C5B0"/>
</svg>
